HIERARCHY
ROOT Hips
{
	OFFSET -0.001795 -0.223333 0.028219
	CHANNELS 6 Xposition Yposition Zposition Zrotation Yrotation Xrotation 
	JOINT LeftUpLeg
	{
		OFFSET 0.069520 -0.091406 -0.006815
		CHANNELS 3 Zrotation Yrotation Xrotation
		JOINT LeftLeg
		{
			OFFSET 0.034277 -0.375199 -0.004496
			CHANNELS 3 Zrotation Yrotation Xrotation
			JOINT LeftFoot
			{
				OFFSET -0.013596 -0.397961 -0.043693
				CHANNELS 3 Zrotation Yrotation Xrotation
				JOINT LeftToe
				{
					OFFSET 0.026358 -0.055791 0.119288
					CHANNELS 3 Zrotation Yrotation Xrotation
					End Site
					{
						OFFSET 0.000000 0.000000 0.000000
					}
				}
			}
		}
	}
	JOINT RightUpLeg
	{
		OFFSET -0.067670 -0.090522 -0.004320
		CHANNELS 3 Zrotation Yrotation Xrotation
		JOINT RightLeg
		{
			OFFSET -0.038290 -0.382569 -0.008850
			CHANNELS 3 Zrotation Yrotation Xrotation
			JOINT RightFoot
			{
				OFFSET 0.015774 -0.398415 -0.042312
				CHANNELS 3 Zrotation Yrotation Xrotation
				JOINT RightToe
				{
					OFFSET -0.025372 -0.048144 0.123348
					CHANNELS 3 Zrotation Yrotation Xrotation
					End Site
					{
						OFFSET 0.000000 0.000000 0.000000
					}
				}
			}
		}
	}
	JOINT Spine
	{
		OFFSET -0.002533 0.108963 -0.026696
		CHANNELS 3 Zrotation Yrotation Xrotation
		JOINT Spine1
		{
			OFFSET 0.005487 0.135180 0.001092
			CHANNELS 3 Zrotation Yrotation Xrotation
			JOINT Spine2
			{
				OFFSET 0.001457 0.052922 0.025425
				CHANNELS 3 Zrotation Yrotation Xrotation
				JOINT Neck
				{
					OFFSET -0.002778 0.213870 -0.042857
					CHANNELS 3 Zrotation Yrotation Xrotation
					JOINT Head
					{
						OFFSET 0.005152 0.064970 0.051349
						CHANNELS 3 Zrotation Yrotation Xrotation
						End Site
						{
							OFFSET 0.000000 0.000000 0.000000
						}
					}
				}
				JOINT LeftShoulder
				{
					OFFSET 0.078845 0.121749 -0.034090
					CHANNELS 3 Zrotation Yrotation Xrotation
					JOINT LeftArm
					{
						OFFSET 0.090977 0.030469 -0.008868
						CHANNELS 3 Zrotation Yrotation Xrotation
						JOINT LeftForeArm
						{
							OFFSET 0.259612 -0.012772 -0.027456
							CHANNELS 3 Zrotation Yrotation Xrotation
							JOINT LeftHand
							{
								OFFSET 0.249234 0.008986 -0.001171
								CHANNELS 3 Zrotation Yrotation Xrotation
								End Site
								{
									OFFSET 0.000000 0.000000 0.000000
								}
							}
						}
					}
				}
				JOINT RightShoulder
				{
					OFFSET -0.081759 0.118833 -0.038615
					CHANNELS 3 Zrotation Yrotation Xrotation
					JOINT RightArm
					{
						OFFSET -0.096012 0.032551 -0.009143
						CHANNELS 3 Zrotation Yrotation Xrotation
						JOINT RightForeArm
						{
							OFFSET -0.253742 -0.013329 -0.021401
							CHANNELS 3 Zrotation Yrotation Xrotation
							JOINT RightHand
							{
								OFFSET -0.255298 0.007772 -0.005559
								CHANNELS 3 Zrotation Yrotation Xrotation
								End Site
								{
									OFFSET 0.000000 0.000000 0.000000
								}
							}
						}
					}
				}
			}
		}
	}
}
MOTION
Frames: 5
Frame Time: 0.050000
0.495201 0.875705 0.766369 -6.493595 -17.672619 9.802365 21.334260 5.754266 -32.095615 -11.859013 6.105311 31.515807 6.022154 12.170544 -1.715498 0.000000 0.000000 0.000000 -14.390765 1.635471 -27.622010 13.043301 -1.589077 22.325194 -8.623526 -22.140244 6.288847 0.000000 0.000000 0.000000 -2.487204 3.015073 48.978201 7.153253 -0.799896 -27.977114 3.302906 -4.129593 18.215612 -7.071198 3.570964 -41.962228 0.000000 0.000000 0.000000 -23.629409 -18.663861 13.342476 -20.543703 -43.860091 2.157355 4.546028 -52.664251 0.991933 0.000000 0.000000 0.000000 14.365878 31.694554 12.436190 27.331888 38.696246 4.122927 -2.314377 56.064011 -0.173410 0.000000 0.000000 0.000000 
0.479321 0.874012 0.755034 -6.311053 -16.871708 10.402415 22.170403 5.900258 -32.195142 -11.691527 5.687130 30.250882 5.718788 11.606691 -0.828961 0.000000 0.000000 0.000000 -13.795435 1.736601 -28.957776 13.688828 -1.849681 23.792913 -8.885859 -22.596084 4.602403 0.000000 0.000000 0.000000 -1.647331 2.495067 49.757332 7.108811 -0.782383 -28.009736 3.561424 -4.169303 17.886649 -8.508155 4.119863 -42.551759 0.000000 0.000000 0.000000 -23.873569 -19.096374 13.602854 -19.246350 -44.272196 1.849972 8.545000 -53.930765 -0.980530 0.000000 0.000000 0.000000 14.374859 31.794900 12.596969 26.541609 39.915823 4.128945 -4.534266 54.828738 -1.163445 0.000000 0.000000 0.000000 
0.461586 0.872250 0.743561 -6.146775 -16.436615 10.806169 23.050096 6.092495 -32.093125 -11.494599 5.297606 28.849016 5.537860 11.298556 -0.049087 0.000000 0.000000 0.000000 -13.106923 1.887667 -30.221574 14.388143 -2.114912 25.252551 -9.471427 -23.794806 3.227699 0.000000 0.000000 0.000000 -1.107171 2.186766 50.449240 7.417797 -0.845701 -27.899392 3.664148 -4.047040 17.645028 -9.509747 4.507086 -43.318467 0.000000 0.000000 0.000000 -23.911744 -19.025057 13.461129 -18.451613 -44.529077 1.675260 11.601002 -54.255756 -2.540295 0.000000 0.000000 0.000000 13.711911 32.119099 12.770799 26.226370 41.112747 4.226843 -6.797762 53.954836 -2.164854 0.000000 0.000000 0.000000 
0.441900 0.871650 0.731586 -5.881448 -15.453224 10.962670 24.032916 6.080990 -31.427499 -11.319204 4.692441 26.222712 5.290194 10.939934 1.330423 0.000000 0.000000 0.000000 -12.366417 1.971329 -31.016090 15.202619 -2.483610 26.456324 -9.911821 -24.753574 1.921663 0.000000 0.000000 0.000000 -0.217330 1.607299 51.865543 7.227307 -0.732015 -28.644806 3.707827 -4.043262 17.349519 -10.589685 4.927714 -43.628660 0.000000 0.000000 0.000000 -23.604001 -19.450617 13.491617 -17.470063 -44.650850 1.453742 13.309829 -53.774423 -3.421999 0.000000 0.000000 0.000000 13.419025 32.261925 12.929419 26.275501 42.029906 4.414574 -8.355825 52.441596 -2.728687 0.000000 0.000000 0.000000 
0.420809 0.871372 0.719004 -5.825588 -14.559610 11.099400 25.238333 6.109069 -30.605570 -11.192163 4.199193 23.830307 5.036642 10.615392 2.901685 0.000000 0.000000 0.000000 -11.093911 2.164441 -31.790584 15.671336 -2.754383 27.249243 -10.443852 -25.951330 1.262934 0.000000 0.000000 0.000000 0.214127 1.198504 52.657291 7.515431 -0.738910 -28.972234 4.121658 -3.753728 17.111898 -11.853667 5.420263 -43.843325 0.000000 0.000000 0.000000 -24.160818 -19.421700 13.408646 -15.691320 -44.562037 0.919996 14.074043 -52.154534 -3.793177 0.000000 0.000000 0.000000 12.733369 32.565211 13.132672 26.390905 42.881865 4.600956 -9.062273 50.439422 -2.812718 0.000000 0.000000 0.000000 
